<svg id="Artwork" xmlns="http://www.w3.org/2000/svg" viewBox="0 0 278.4 26.73"><defs><style>.cls-1{fill:#0a0203;}.cls-2{fill:#ef4423;}</style></defs><title>01 LA-Inline_Logo-Dark</title><path id="_Compound_Path_" data-name="&lt;Compound Path&gt;" class="cls-1" d="M0,25.69V.93A.57.57,0,0,1,.63.3h4a.57.57,0,0,1,.63.63V21.6a.21.21,0,0,0,.23.23H17.4a.57.57,0,0,1,.63.63v3.23a.57.57,0,0,1-.63.63H.63A.57.57,0,0,1,0,25.69Z"/><path id="_Compound_Path_2" data-name="&lt;Compound Path&gt;" class="cls-1" d="M21.27,25.69V.93A.57.57,0,0,1,21.9.3h4a.57.57,0,0,1,.63.63V25.69a.57.57,0,0,1-.63.63h-4A.57.57,0,0,1,21.27,25.69Z"/><path id="_Compound_Path_3" data-name="&lt;Compound Path&gt;" class="cls-1" d="M31.08,25.69V.93A.57.57,0,0,1,31.71.3h4a.79.79,0,0,1,.75.41l5.39,8.7a.15.15,0,0,0,.29,0L47.59.71A.78.78,0,0,1,48.33.3h4a.57.57,0,0,1,.63.63V25.69a.57.57,0,0,1-.63.63h-4a.57.57,0,0,1-.63-.63V9.59c0-.22-.15-.26-.26-.07l-3.75,6.13a.79.79,0,0,1-.75.41H41.05a.79.79,0,0,1-.75-.41L36.58,9.52c-.11-.19-.26-.15-.26.07v16.1a.57.57,0,0,1-.63.63h-4A.57.57,0,0,1,31.08,25.69Z"/><path id="_Compound_Path_4" data-name="&lt;Compound Path&gt;" class="cls-1" d="M57,17.29v-8C57,3.76,60.86,0,66.74,0s9.81,3.76,9.81,9.33v8c0,5.65-3.9,9.44-9.81,9.44S57,22.94,57,17.29Zm14.35.19V9.3c0-2.9-1.82-4.8-4.57-4.8S62.2,6.4,62.2,9.3v8.18a4.56,4.56,0,1,0,9.11,0Z"/><path id="_Compound_Path_5" data-name="&lt;Compound Path&gt;" class="cls-1" d="M113,25.69V.93a.57.57,0,0,1,.63-.63h3.83a.79.79,0,0,1,.75.41l9.29,15.46c.11.19.26.15.26-.07V.93a.57.57,0,0,1,.63-.63h3.91a.57.57,0,0,1,.63.63V25.69a.57.57,0,0,1-.63.63h-3.8a.81.81,0,0,1-.74-.44l-9.33-15.62c-.11-.18-.26-.15-.26.08l0,15.35a.57.57,0,0,1-.64.63h-3.94A.57.57,0,0,1,113,25.69Z"/><path id="_Compound_Path_6" data-name="&lt;Compound Path&gt;" class="cls-1" d="M144,25.65V16.47a.87.87,0,0,0-.07-.3L136.41,1c-.22-.41,0-.74.45-.74h4.31a.81.81,0,0,1,.74.48l4.54,9.67c.07.15.22.15.3,0L151.28.78A.81.81,0,0,1,152,.3h4.35c.48,0,.7.33.48.74l-7.59,15.13a1.18,1.18,0,0,0-.07.3v9.18a.57.57,0,0,1-.63.64h-3.94A.58.58,0,0,1,144,25.65Z"/><path id="_Compound_Path_7" data-name="&lt;Compound Path&gt;" class="cls-1" d="M165.34,25.77,158.79,1a.52.52,0,0,1,.56-.7h4.24a.62.62,0,0,1,.67.56l3.49,14.83a.15.15,0,0,0,.3,0L171.4.86a.61.61,0,0,1,.67-.56h4.2a.64.64,0,0,1,.7.56l3.65,14.83c0,.22.22.19.26,0L184.22.86a.62.62,0,0,1,.67-.56H189a.5.5,0,0,1,.52.7l-6,24.77a.65.65,0,0,1-.71.55h-4.09a.64.64,0,0,1-.7-.55L174.26,10c0-.18-.26-.22-.3,0L170.5,25.77a.61.61,0,0,1-.67.55H166A.68.68,0,0,1,165.34,25.77Z"/><path id="_Compound_Path_8" data-name="&lt;Compound Path&gt;" class="cls-1" d="M206.9.3h4a.57.57,0,0,1,.63.63V25.69a.57.57,0,0,1-.63.63h-4a.57.57,0,0,1-.63-.63v-10a.19.19,0,0,0-.22-.22H197.9a.2.2,0,0,0-.22.22v10a.57.57,0,0,1-.63.63h-4a.57.57,0,0,1-.63-.63V.93a.57.57,0,0,1,.63-.63h4a.57.57,0,0,1,.63.63v9.78a.2.2,0,0,0,.22.22h8.15a.19.19,0,0,0,.22-.22V.93A.57.57,0,0,1,206.9.3Z"/><path id="_Compound_Path_9" data-name="&lt;Compound Path&gt;" class="cls-1" d="M233.23,4.8h-12A.21.21,0,0,0,221,5v5.69a.19.19,0,0,0,.22.22H229a.57.57,0,0,1,.64.63V14.8a.57.57,0,0,1-.64.63h-7.77a.21.21,0,0,0-.22.22v6a.22.22,0,0,0,.22.23h12a.57.57,0,0,1,.63.63v3.23a.57.57,0,0,1-.63.63H216.42a.57.57,0,0,1-.63-.63V.93a.57.57,0,0,1,.63-.63h16.81a.57.57,0,0,1,.63.63V4.16A.58.58,0,0,1,233.23,4.8Z"/><path id="_Compound_Path_10" data-name="&lt;Compound Path&gt;" class="cls-1" d="M251.18,25.84l-4.57-10.11a.29.29,0,0,0-.26-.19H243a.2.2,0,0,0-.23.22v9.93a.57.57,0,0,1-.63.63h-4a.57.57,0,0,1-.63-.63V.89a.57.57,0,0,1,.63-.63h10.45c4.8,0,8,3.16,8,7.85A6.93,6.93,0,0,1,251.78,15a.19.19,0,0,0-.11.3l4.9,10.26c.23.41,0,.74-.44.74h-4.2A.81.81,0,0,1,251.18,25.84ZM242.74,5v6.25a.22.22,0,0,0,.23.22h4.83a3.26,3.26,0,0,0,3.53-3.31A3.3,3.3,0,0,0,247.8,4.8H243C242.82,4.8,242.74,4.87,242.74,5Z"/><path id="_Compound_Path_11" data-name="&lt;Compound Path&gt;" class="cls-1" d="M277.77,4.8h-12a.21.21,0,0,0-.22.22v5.69a.2.2,0,0,0,.22.22h7.77a.57.57,0,0,1,.64.63V14.8a.57.57,0,0,1-.64.63h-7.77a.21.21,0,0,0-.22.22v6a.22.22,0,0,0,.22.23h12a.57.57,0,0,1,.63.63v3.23a.57.57,0,0,1-.63.63H261a.57.57,0,0,1-.63-.63V.93A.57.57,0,0,1,261,.3h16.81a.57.57,0,0,1,.63.63V4.16A.58.58,0,0,1,277.77,4.8Z"/><path id="_Path_" data-name="&lt;Path&gt;" class="cls-1" d="M95.78,13.77l2.13-7.28c.08-.19.22-.19.3,0l2.14,7.26,6.21,2.82-5-15.78a.69.69,0,0,0-.71-.52H95.34a.68.68,0,0,0-.7.52l-5,15.8Z"/><path id="_Path_2" data-name="&lt;Path&gt;" class="cls-2" d="M109.41,25.44l-1.6-5a.66.66,0,0,0-.37-.43l-9-4.12a.72.72,0,0,0-.29-.06h0a.72.72,0,0,0-.29.06l-9,4.12a.66.66,0,0,0-.37.43l-1.6,5c-.1.49,0,.73.38.81a1,1,0,0,0,.51-.1L97.8,21.51a.6.6,0,0,1,.3-.06.58.58,0,0,1,.29.06l10.13,4.64a1,1,0,0,0,.51.1C109.36,26.17,109.51,25.93,109.41,25.44Z"/></svg>